<svg xmlns="http://www.w3.org/2000/svg" viewBox="0 0 180 180">
  <defs>
    <radialGradient id="lamp" cx="50%" cy="0%" r="95%"><stop offset="0" stop-color="#21454f"/><stop offset="1" stop-color="#0a1517"/></radialGradient>
    <linearGradient id="copper" gradientUnits="userSpaceOnUse" x1="0" y1="60" x2="0" y2="150"><stop offset="0" stop-color="#ffb27f"/><stop offset="1" stop-color="#d9895b"/></linearGradient>
    <clipPath id="c1"><circle cx="44" cy="46" r="17"/></clipPath><clipPath id="c2"><circle cx="90" cy="38" r="17"/></clipPath><clipPath id="c3"><circle cx="136" cy="46" r="17"/></clipPath>
  </defs>
  <rect width="180" height="180" fill="url(#lamp)"/>
  <g fill="none" stroke-width="8" stroke-linecap="round">
    <path d="M44 63 V78 C44 96 60 96 78 96 H90" stroke="#62b6b3"/>
    <path d="M90 55 V96" stroke="#ffb27f"/>
    <path d="M136 63 V78 C136 96 120 96 102 96 H90" stroke="#7fb0d8"/>
  </g>
  <image href="/logos/openai.png" x="27" y="29" width="34" height="34" clip-path="url(#c1)"/>
  <image href="/logos/anthropic.png" x="73" y="21" width="34" height="34" clip-path="url(#c2)"/>
  <image href="/logos/xai.png" x="119" y="29" width="34" height="34" clip-path="url(#c3)"/>
  <g fill="none" stroke-width="5"><circle cx="44" cy="46" r="19" stroke="#62b6b3"/><circle cx="90" cy="38" r="19" stroke="#ffb27f"/><circle cx="136" cy="46" r="19" stroke="#7fb0d8"/></g>
  <circle cx="90" cy="104" r="20" fill="#0a1517"/>
  <circle cx="90" cy="104" r="16" fill="url(#copper)"/>
  <path d="M90 126 V150 M76 138 L90 152 L104 138" fill="none" stroke="url(#copper)" stroke-width="8" stroke-linecap="round" stroke-linejoin="round"/>
</svg>